<svg xmlns="http://www.w3.org/2000/svg" version="1.1" xmlns:xlink="http://www.w3.org/1999/xlink" width="1000" height="1000"><metadata><rdf:RDF xmlns:rdf="http://www.w3.org/1999/02/22-rdf-syntax-ns#" xmlns:dc="http://purl.org/dc/elements/1.1/"><rdf:Description><dc:creator>RealFaviconGenerator</dc:creator><dc:source>https://realfavicongenerator.net</dc:source></rdf:Description></rdf:RDF></metadata><style>
    #light-icon {
      display: inline;
    }
    #dark-icon {
      display: none;
    }

    @media (prefers-color-scheme: dark) {
      #light-icon {
        display: none;
      }
      #dark-icon {
        display: inline;
      }
    }
  </style><g id="light-icon"><svg xmlns="http://www.w3.org/2000/svg" version="1.1" xmlns:xlink="http://www.w3.org/1999/xlink" width="1000" height="1000"><g><g transform="matrix(0.7142857142857143,0,0,0.7142857142857143,0,0)"><svg xmlns="http://www.w3.org/2000/svg" xmlns:xlink="http://www.w3.org/1999/xlink" id="Layer_1" data-name="Layer 1" viewBox="0 0 1400 1400" width="1400" height="1400"><defs>
    <style>
      .cls-1 {
        fill: #fff;
      }

      .cls-2 {
        fill: url(#linear-gradient);
      }
    </style>
    <linearGradient id="linear-gradient" x1="51.26" y1="51.26" x2="1348.74" y2="1348.74" gradientUnits="userSpaceOnUse">
      <stop offset="0" stop-color="#2563eb"></stop>
      <stop offset="1" stop-color="#1d4ed8"></stop>
    </linearGradient>
  </defs><rect id="Background" class="cls-2" width="1400" height="1400" rx="175" ry="175"></rect><path id="Big" class="cls-1" d="M1127.5,816.91v261.18c0,27.29-22.12,49.41-49.41,49.41h-261.18c-27.29,0-49.41-22.12-49.41-49.41v-55.59h-135v55.59c0,27.29-22.12,49.41-49.41,49.41h-261.18c-27.29,0-49.41-22.12-49.41-49.41v-261.18c0-27.29,22.12-49.41,49.41-49.41h55.59v-135h-55.59c-27.29,0-49.41-22.12-49.41-49.41v-261.18c0-27.29,22.12-49.41,49.41-49.41h261.18c27.29,0,49.41,22.12,49.41,49.41v261.18c0,27.29-22.12,49.41-49.41,49.41h-55.59v135h55.59c27.29,0,49.41,22.12,49.41,49.41v55.59h135v-55.59c0-27.29,22.12-49.41,49.41-49.41h261.18c27.29,0,49.41,22.12,49.41,49.41Z"></path><path id="Small" class="cls-1" d="M1078.09,272.5h-261.18c-27.29,0-49.41,22.12-49.41,49.41v261.18c0,27.29,22.12,49.41,49.41,49.41h261.18c27.29,0,49.41-22.12,49.41-49.41v-261.18c0-27.29-22.12-49.41-49.41-49.41ZM1037.5,517.79c0,13.65-11.06,24.71-24.71,24.71h-130.58c-13.65,0-24.71-11.06-24.71-24.71v-130.58c0-13.65,11.06-24.71,24.71-24.71h130.58c13.65,0,24.71,11.06,24.71,24.71v130.58Z"></path></svg></g></g></svg></g><g id="dark-icon"><svg xmlns="http://www.w3.org/2000/svg" version="1.1" xmlns:xlink="http://www.w3.org/1999/xlink" width="1000" height="1000"><g><g transform="matrix(0.7142857142857143,0,0,0.7142857142857143,0,0)"><svg xmlns="http://www.w3.org/2000/svg" xmlns:xlink="http://www.w3.org/1999/xlink" id="Layer_1" data-name="Layer 1" viewBox="0 0 1400 1400" width="1400" height="1400"><defs>
    <style>
      .cls-1 {
        fill: #fff;
      }

      .cls-2 {
        fill: none;
      }

      .cls-3 {
        fill: url(#linear-gradient);
      }

      .cls-4 {
        clip-path: url(#clippath);
      }
    </style>
    <clipPath id="clippath">
      <path id="Emblem" class="cls-2" d="M1127.5,816.91v261.18c0,27.29-22.12,49.41-49.41,49.41h-261.18c-27.29,0-49.41-22.12-49.41-49.41v-55.59h-135v55.59c0,27.29-22.12,49.41-49.41,49.41h-261.18c-27.29,0-49.41-22.12-49.41-49.41v-261.18c0-27.29,22.12-49.41,49.41-49.41h55.59v-135h-55.59c-27.29,0-49.41-22.12-49.41-49.41v-261.18c0-27.29,22.12-49.41,49.41-49.41h261.18c27.29,0,49.41,22.12,49.41,49.41v261.18c0,27.29-22.12,49.41-49.41,49.41h-55.59v135h55.59c27.29,0,49.41,22.12,49.41,49.41v55.59h135v-55.59c0-27.29,22.12-49.41,49.41-49.41h261.18c27.29,0,49.41,22.12,49.41,49.41ZM1127.5,321.91v261.18c0,27.29-22.12,49.41-49.41,49.41h-261.18c-27.29,0-49.41-22.12-49.41-49.41v-261.18c0-27.29,22.12-49.41,49.41-49.41h261.18c27.29,0,49.41,22.12,49.41,49.41ZM1037.5,387.21c0-13.65-11.06-24.71-24.71-24.71h-130.58c-13.65,0-24.71,11.06-24.71,24.71v130.58c0,13.65,11.06,24.71,24.71,24.71h130.58c13.65,0,24.71-11.06,24.71-24.71v-130.58Z"></path>
    </clipPath>
    <linearGradient id="linear-gradient" x1="51.26" y1="51.26" x2="1348.74" y2="1348.74" gradientUnits="userSpaceOnUse">
      <stop offset="0" stop-color="#2563eb"></stop>
      <stop offset="1" stop-color="#1d4ed8"></stop>
    </linearGradient>
  </defs><rect id="Background" class="cls-1" width="1400" height="1400" rx="175" ry="175"></rect><g class="cls-4">
    <rect id="Gradiant" class="cls-3" width="1400" height="1400" rx="175" ry="175"></rect>
  </g></svg></g></g></svg></g></svg>